<svg width="140" height="61" fill="none" xmlns="http://www.w3.org/2000/svg"><path d="M23.556 48c-2.357 0-3.97-.45-4.836-1.352-.797-.763-1.196-1.421-1.196-1.976V43.58c-1.699 3.085-4.42 4.628-8.164 4.628-4.368 0-6.847-1.976-7.436-5.928a7.58 7.58 0 01-.104-1.248c0-.45.07-.936.208-1.456.139-.52.537-1.092 1.196-1.716 1.317-1.248 4.212-2.01 8.684-2.288a33.045 33.045 0 013.068-.156c.936 0 1.785.035 2.548.104v-8.632c-.07-.035-.07-.19 0-.468.07-.312 0-.693-.208-1.144a6.02 6.02 0 00-.728-1.404c-.312-.45-.867-.832-1.664-1.144-.797-.347-1.837-.52-3.12-.52-1.283 0-2.79.243-4.524.728-1.699.45-2.947.901-3.744 1.352l-.208-.364c3.085-1.421 6.223-2.132 9.412-2.132 3.57 0 5.928.641 7.072 1.924.901 1.005 1.352 2.063 1.352 3.172v17.42c0 1.005.19 1.785.572 2.34.416.52.832.797 1.248.832l.572.104h1.612V48h-1.612zm-13.364-.208c1.837 0 3.484-.624 4.94-1.872 1.49-1.283 2.288-2.513 2.392-3.692v-6.292c-.936-.07-1.89-.104-2.86-.104-.936 0-1.872.052-2.808.156-2.635.312-4.35.901-5.148 1.768-.797.867-1.196 2.063-1.196 3.588 0 .277.017.59.052.936.312 3.675 1.855 5.512 4.628 5.512zM59.385 27.98c0-2.115-.277-3.605-.832-4.472-.554-.867-1.612-1.3-3.172-1.3-2.08 0-3.934.867-5.564 2.6-1.594 1.733-2.392 3.293-2.392 4.68V48h-3.64V27.98c0-2.115-.277-3.605-.832-4.472-.554-.867-1.733-1.3-3.536-1.3-1.802 0-3.518.832-5.148 2.496-1.594 1.664-2.461 3.207-2.6 4.628V48h-3.64V22h3.64v5.876c.555-1.49 1.578-2.877 3.068-4.16 1.49-1.283 3.155-1.924 4.992-1.924 1.838 0 3.294.173 4.368.52 1.11.312 1.89.815 2.34 1.508.45.693.728 1.3.832 1.82.104.52.156 1.248.156 2.184.555-1.49 1.56-2.86 3.016-4.108 1.456-1.283 3.016-1.924 4.68-1.924 1.664 0 2.999.139 4.004.416 1.006.277 1.75.59 2.236.936.52.347.902.85 1.144 1.508.278.659.434 1.196.468 1.612.035.416.052 1.005.052 1.768v16.276c0 1.005.19 1.785.572 2.34.416.52.832.797 1.248.832l.572.104h1.612V48h-3.172c-1.421 0-2.513-.312-3.276-.936-.728-.624-1.11-1.248-1.144-1.872l-.052-.884V27.98zm12.754 7.332c0 4.299.746 7.453 2.236 9.464 1.526 2.01 3.52 3.016 5.98 3.016 3.467 0 6.552-.52 9.256-1.56l.156.364c-2.773 1.075-5.91 1.612-9.412 1.612-3.466 0-6.292-1.04-8.476-3.12-2.184-2.08-3.276-5.287-3.276-9.62 0-4.333 1.144-7.696 3.432-10.088 2.288-2.392 5.2-3.588 8.736-3.588 2.843 0 5.235.85 7.176 2.548 1.942 1.699 2.912 4.212 2.912 7.54v.52H72.295a26.368 26.368 0 00-.156 2.912zm15.184-3.328c-.034-3.328-.676-5.79-1.924-7.384-1.248-1.595-2.86-2.392-4.836-2.392-1.976 0-3.744.867-5.304 2.6-1.525 1.733-2.496 4.125-2.912 7.176h14.976zM101.157 48c-3.051 0-4.975-.797-5.772-2.392-.174-.347-.26-.659-.26-.936V9.052h3.64v35.256c0 1.005.19 1.785.572 2.34.416.52.832.797 1.248.832l.572.104h1.612V48h-1.612zm9.821 0c-1.422 0-2.514-.312-3.276-.936-.728-.624-1.11-1.248-1.144-1.872l-.052-.884V22h3.64v22.308c0 1.005.19 1.785.572 2.34.416.52.814.797 1.196.832l.624.104h1.612V48h-3.172zm-4.16-31.824c-.416-.416-.624-.936-.624-1.56s.208-1.144.624-1.56c.416-.45.936-.676 1.56-.676s1.144.225 1.56.676c.45.416.676.936.676 1.56s-.226 1.144-.676 1.56c-.416.416-.936.624-1.56.624s-1.144-.208-1.56-.624zm12.446 19.136c0 4.299.746 7.453 2.236 9.464 1.526 2.01 3.519 3.016 5.98 3.016 3.467 0 6.552-.52 9.256-1.56l.156.364c-2.773 1.075-5.91 1.612-9.412 1.612-3.466 0-6.292-1.04-8.476-3.12-2.184-2.08-3.276-5.287-3.276-9.62 0-4.333 1.144-7.696 3.432-10.088 2.288-2.392 5.2-3.588 8.736-3.588 2.843 0 5.235.85 7.176 2.548 1.942 1.699 2.912 4.212 2.912 7.54v.52H119.42a26.368 26.368 0 00-.156 2.912zm15.184-3.328c-.034-3.328-.676-5.79-1.924-7.384-1.248-1.595-2.86-2.392-4.836-2.392-1.976 0-3.744.867-5.304 2.6-1.525 1.733-2.496 4.125-2.912 7.176h14.976z" fill="#000"/><path d="M108.5 7l.552 4.08 2.268-3.436-1.272 3.915 3.534-2.112-2.845 2.976 4.1-.37-3.854 1.447 3.854 1.446-4.1-.369 2.845 2.976-3.534-2.112 1.272 3.915-2.268-3.436L108.5 20l-.552-4.08-2.268 3.436 1.272-3.915-3.534 2.112 2.845-2.976-4.1.37 3.854-1.447-3.854-1.446 4.1.369-2.845-2.976 3.534 2.112-1.272-3.915 2.268 3.435L108.5 7z" fill="#000"/></svg>