<svg width="140" height="61" viewBox="0 0 140 61" fill="none" xmlns="http://www.w3.org/2000/svg">
<path d="M23.556 48C21.1987 48 19.5867 47.5493 18.72 46.648C17.9227 45.8853 17.524 45.2267 17.524 44.672V43.58C15.8253 46.6653 13.104 48.208 9.36 48.208C4.992 48.208 2.51333 46.232 1.924 42.28C1.85467 41.864 1.82 41.448 1.82 41.032C1.82 40.5813 1.88933 40.096 2.028 39.576C2.16667 39.056 2.56533 38.484 3.224 37.86C4.54133 36.612 7.436 35.8493 11.908 35.572C13.0173 35.468 14.04 35.416 14.976 35.416C15.912 35.416 16.7613 35.4507 17.524 35.52V26.888C17.4547 26.8533 17.4547 26.6973 17.524 26.42C17.5933 26.108 17.524 25.7267 17.316 25.276C17.1427 24.7907 16.9 24.3227 16.588 23.872C16.276 23.4213 15.7213 23.04 14.924 22.728C14.1267 22.3813 13.0867 22.208 11.804 22.208C10.5213 22.208 9.01333 22.4507 7.28 22.936C5.58133 23.3867 4.33333 23.8373 3.536 24.288L3.328 23.924C6.41333 22.5027 9.55067 21.792 12.74 21.792C16.3107 21.792 18.668 22.4333 19.812 23.716C20.7133 24.7213 21.164 25.7787 21.164 26.888V44.308C21.164 45.3133 21.3547 46.0933 21.736 46.648C22.152 47.168 22.568 47.4453 22.984 47.48L23.556 47.584H25.168V48H23.556ZM10.192 47.792C12.0293 47.792 13.676 47.168 15.132 45.92C16.6227 44.6373 17.42 43.4067 17.524 42.228V35.936C16.588 35.8667 15.6347 35.832 14.664 35.832C13.728 35.832 12.792 35.884 11.856 35.988C9.22133 36.3 7.50533 36.8893 6.708 37.756C5.91067 38.6227 5.512 39.8187 5.512 41.344C5.512 41.6213 5.52933 41.9333 5.564 42.28C5.876 45.9547 7.41867 47.792 10.192 47.792ZM59.3852 27.98C59.3852 25.8653 59.1079 24.3747 58.5532 23.508C57.9986 22.6413 56.9412 22.208 55.3812 22.208C53.3012 22.208 51.4466 23.0747 49.8172 24.808C48.2226 26.5413 47.4252 28.1013 47.4252 29.488V48H43.7852V27.98C43.7852 25.8653 43.5079 24.3747 42.9532 23.508C42.3986 22.6413 41.2199 22.208 39.4172 22.208C37.6146 22.208 35.8986 23.04 34.2692 24.704C32.6746 26.368 31.8079 27.9107 31.6692 29.332V48H28.0292V22H31.6692V27.876C32.2239 26.3853 33.2466 24.9987 34.7372 23.716C36.2279 22.4333 37.8919 21.792 39.7292 21.792C41.5666 21.792 43.0226 21.9653 44.0972 22.312C45.2066 22.624 45.9866 23.1267 46.4372 23.82C46.8879 24.5133 47.1652 25.12 47.2692 25.64C47.3732 26.16 47.4252 26.888 47.4252 27.824C47.9799 26.3333 48.9852 24.964 50.4412 23.716C51.8972 22.4333 53.4572 21.792 55.1212 21.792C56.7852 21.792 58.1199 21.9307 59.1252 22.208C60.1306 22.4853 60.8759 22.7973 61.3612 23.144C61.8812 23.4907 62.2626 23.9933 62.5052 24.652C62.7826 25.3107 62.9386 25.848 62.9732 26.264C63.0079 26.68 63.0252 27.2693 63.0252 28.032V44.308C63.0252 45.3133 63.2159 46.0933 63.5972 46.648C64.0132 47.168 64.4292 47.4453 64.8452 47.48L65.4172 47.584H67.0292V48H63.8572C62.4359 48 61.3439 47.688 60.5812 47.064C59.8532 46.44 59.4719 45.816 59.4372 45.192L59.3852 44.308V27.98ZM72.1394 35.312C72.1394 39.6107 72.8848 42.7653 74.3754 44.776C75.9008 46.7867 77.8941 47.792 80.3554 47.792C83.8221 47.792 86.9074 47.272 89.6114 46.232L89.7674 46.596C86.9941 47.6707 83.8568 48.208 80.3554 48.208C76.8888 48.208 74.0634 47.168 71.8794 45.088C69.6954 43.008 68.6034 39.8013 68.6034 35.468C68.6034 31.1347 69.7474 27.772 72.0354 25.38C74.3234 22.988 77.2354 21.792 80.7714 21.792C83.6141 21.792 86.0061 22.6413 87.9474 24.34C89.8888 26.0387 90.8594 28.552 90.8594 31.88C90.8594 32.0533 90.8594 32.2267 90.8594 32.4H72.2954C72.1914 33.336 72.1394 34.3067 72.1394 35.312ZM87.3234 31.984C87.2888 28.656 86.6474 26.1947 85.3994 24.6C84.1514 23.0053 82.5394 22.208 80.5634 22.208C78.5874 22.208 76.8194 23.0747 75.2594 24.808C73.7341 26.5413 72.7634 28.9333 72.3474 31.984H87.3234ZM101.157 48C98.106 48 96.182 47.2027 95.3847 45.608C95.2113 45.2613 95.1247 44.9493 95.1247 44.672V9.052H98.7647V44.308C98.7647 45.3133 98.9553 46.0933 99.3367 46.648C99.7527 47.168 100.169 47.4453 100.585 47.48L101.157 47.584H102.769V48H101.157ZM110.978 48C109.556 48 108.464 47.688 107.702 47.064C106.974 46.44 106.592 45.816 106.558 45.192L106.506 44.308V22H110.146V44.308C110.146 45.3133 110.336 46.0933 110.718 46.648C111.134 47.168 111.532 47.4453 111.914 47.48L112.538 47.584H114.15V48H110.978ZM106.818 16.176C106.402 15.76 106.194 15.24 106.194 14.616C106.194 13.992 106.402 13.472 106.818 13.056C107.234 12.6053 107.754 12.38 108.378 12.38C109.002 12.38 109.522 12.6053 109.938 13.056C110.388 13.472 110.614 13.992 110.614 14.616C110.614 15.24 110.388 15.76 109.938 16.176C109.522 16.592 109.002 16.8 108.378 16.8C107.754 16.8 107.234 16.592 106.818 16.176ZM119.264 35.312C119.264 39.6107 120.01 42.7653 121.5 44.776C123.026 46.7867 125.019 47.792 127.48 47.792C130.947 47.792 134.032 47.272 136.736 46.232L136.892 46.596C134.119 47.6707 130.982 48.208 127.48 48.208C124.014 48.208 121.188 47.168 119.004 45.088C116.82 43.008 115.728 39.8013 115.728 35.468C115.728 31.1347 116.872 27.772 119.16 25.38C121.448 22.988 124.36 21.792 127.896 21.792C130.739 21.792 133.131 22.6413 135.072 24.34C137.014 26.0387 137.984 28.552 137.984 31.88C137.984 32.0533 137.984 32.2267 137.984 32.4H119.42C119.316 33.336 119.264 34.3067 119.264 35.312ZM134.448 31.984C134.414 28.656 133.772 26.1947 132.524 24.6C131.276 23.0053 129.664 22.208 127.688 22.208C125.712 22.208 123.944 23.0747 122.384 24.808C120.859 26.5413 119.888 28.9333 119.472 31.984H134.448Z" fill="white"/>
<path d="M108.5 7L109.052 11.0795L111.32 7.6437L110.048 11.5589L113.582 9.44732L110.737 12.4228L114.837 12.0536L110.983 13.5L114.837 14.9464L110.737 14.5772L113.582 17.5527L110.048 15.4411L111.32 19.3563L109.052 15.9205L108.5 20L107.948 15.9205L105.68 19.3563L106.952 15.4411L103.418 17.5527L106.263 14.5772L102.163 14.9464L106.017 13.5L102.163 12.0536L106.263 12.4228L103.418 9.44732L106.952 11.5589L105.68 7.6437L107.948 11.0795L108.5 7Z" fill="white"/>
</svg>
