<svg width="20" height="26" fill="none" xmlns="http://www.w3.org/2000/svg"><path d="M19.506 22.456L18.123 7.239a.814.814 0 00-.811-.739h-2.438V4.875a4.848 4.848 0 00-1.423-3.452A4.848 4.848 0 009.999 0a4.881 4.881 0 00-4.875 4.875V6.5H2.687c-.42 0-.772.32-.81.74L.496 22.455a3.257 3.257 0 00.837 2.486A3.255 3.255 0 003.732 26h12.537c.911 0 1.786-.385 2.4-1.058.614-.673.918-1.58.837-2.486zM6.749 4.875A3.253 3.253 0 0110 1.625a3.237 3.237 0 013.25 3.25V6.5h-6.5V4.875zm10.719 18.972c-.312.34-.738.528-1.2.528H3.731c-.462 0-.89-.189-1.2-.53a1.602 1.602 0 01-.417-1.243L3.43 8.125h1.694v2.438a.813.813 0 001.625 0V8.124h6.5v2.438a.813.813 0 001.625 0V8.124h1.695l1.317 14.479c.042.46-.106.902-.418 1.243z" fill="#000"/></svg>