<svg width="20" height="26" viewBox="0 0 20 26" fill="none" xmlns="http://www.w3.org/2000/svg">
<path d="M19.5057 22.4559L18.1228 7.23938C18.0838 6.82013 17.7328 6.5 17.3119 6.5H14.8744V4.875C14.8744 3.5685 14.3691 2.34162 13.4509 1.4235C12.5328 0.505375 11.3059 0 9.99943 0C7.31168 0 5.12443 2.18725 5.12443 4.875V6.5H2.68693C2.26606 6.5 1.91506 6.82013 1.87768 7.23938L0.494807 22.4559C0.411932 23.3626 0.717432 24.2694 1.33168 24.9421C1.94593 25.6149 2.82018 26 3.73181 26H16.2687C17.1803 26 18.0546 25.6149 18.6688 24.9421C19.2831 24.2694 19.5869 23.3626 19.5057 22.4559ZM6.74943 4.875C6.74943 3.08262 8.20706 1.625 9.99943 1.625C10.8721 1.625 11.6894 1.96137 12.3021 2.57237C12.9147 3.18337 13.2494 4.00238 13.2494 4.875V6.5H6.74943V4.875ZM17.4679 23.8469C17.1559 24.1865 16.7302 24.375 16.2671 24.375H3.73181C3.27031 24.375 2.84293 24.1865 2.53256 23.8452C2.22056 23.504 2.07268 23.0636 2.11493 22.6021L3.42956 8.125H5.12443V10.5625C5.12443 11.011 5.48843 11.375 5.93693 11.375C6.38543 11.375 6.74943 11.011 6.74943 10.5625V8.125H13.2494V10.5625C13.2494 11.011 13.6134 11.375 14.0619 11.375C14.5104 11.375 14.8744 11.011 14.8744 10.5625V8.125H16.5693L17.8856 22.6038C17.9278 23.0636 17.7799 23.5056 17.4679 23.8469Z" fill="black"/>
</svg>
