<svg width="15" height="15" viewBox="0 0 15 15" fill="none" xmlns="http://www.w3.org/2000/svg">
<g clip-path="url(#clip0)">
<path d="M7.5 0.000976562C3.36446 0.000976562 0 3.36543 0 7.5009C0 11.6364 3.36446 15.0008 7.5 15.0008C11.6355 15.0008 15 11.6364 15 7.5009C15 3.36543 11.6355 0.000976562 7.5 0.000976562ZM12.3874 3.53811C13.2294 4.57453 13.7478 5.88269 13.7909 7.30871C12.2312 6.98582 10.8189 7.02371 9.57219 7.26817C9.34644 6.74024 9.11275 6.23729 8.87688 5.76195C10.2347 5.17703 11.4167 4.42994 12.3874 3.53811ZM11.5426 2.67944C10.579 3.55899 9.46229 4.21022 8.31886 4.69102C7.47961 3.1563 6.67665 2.00059 6.1875 1.34382C6.61106 1.25359 7.04995 1.20518 7.5 1.20518C9.03792 1.20518 10.448 1.76023 11.5426 2.67944ZM4.97126 1.73711C5.34063 2.21574 6.22042 3.41416 7.16547 5.11923C4.79031 5.89305 2.48563 6.02342 1.37817 6.03555C1.83978 4.10722 3.19017 2.52161 4.97126 1.73711ZM1.21078 7.2428C1.22266 7.2428 1.23414 7.24288 1.24627 7.24288C2.0115 7.24288 3.41351 7.19142 5.06406 6.89045C6.00575 6.71873 6.8987 6.4876 7.73659 6.20116C7.95471 6.63588 8.17154 7.09444 8.3818 7.57508C7.20858 7.95279 6.21921 8.49629 5.43552 9.03593C4.12134 9.94093 3.20068 10.945 2.69797 11.5658C1.7672 10.4681 1.2042 9.04942 1.2042 7.5009C1.2042 7.41435 1.20725 7.32854 1.21078 7.2428ZM3.56572 12.4107C3.99851 11.8658 4.87942 10.8739 6.1537 10.0036C7.01968 9.41212 7.91561 8.97267 8.83795 8.68422C9.37309 10.0713 9.82997 11.6039 10.1024 13.2313C9.30855 13.5932 8.42788 13.7966 7.5 13.7966C6.01225 13.7966 4.64436 13.2768 3.56572 12.4107ZM11.2102 12.5829C10.9295 11.0883 10.5108 9.68299 10.0268 8.39867C11.2174 8.19781 12.4478 8.23923 13.7116 8.5231C13.439 10.1841 12.5148 11.6279 11.2102 12.5829Z" fill="black"/>
</g>
<defs>
<clipPath id="clip0">
<rect width="15" height="15" fill="white"/>
</clipPath>
</defs>
</svg>
