<svg width="15" height="15" viewBox="0 0 15 15" fill="none" xmlns="http://www.w3.org/2000/svg">
<g clip-path="url(#clip0)">
<path d="M7.50207 3.64893C5.37519 3.64893 3.65332 5.37268 3.65332 7.49768C3.65332 9.62455 5.37707 11.3464 7.50207 11.3464C9.62894 11.3464 11.3508 9.62267 11.3508 7.49768C11.3508 5.3708 9.62707 3.64893 7.50207 3.64893ZM7.50207 9.9958C6.12144 9.9958 5.00395 8.87768 5.00395 7.49768C5.00395 6.11768 6.12207 4.99955 7.50207 4.99955C8.88207 4.99955 10.0002 6.11768 10.0002 7.49768C10.0008 8.87768 8.8827 9.9958 7.50207 9.9958Z" fill="black"/>
<path d="M10.5926 0.0480932C9.21264 -0.0162818 5.79452 -0.0131568 4.41327 0.0480932C3.19952 0.104968 2.12889 0.398093 1.26577 1.26122C-0.176733 2.70372 0.00764204 4.64747 0.00764204 7.49809C0.00764204 10.4156 -0.154858 12.3143 1.26577 13.735C2.71389 15.1825 4.68577 14.9931 7.50264 14.9931C10.3926 14.9931 11.3901 14.995 12.412 14.5993C13.8014 14.06 14.8501 12.8181 14.9526 10.5875C15.0176 9.20684 15.0139 5.78934 14.9526 4.40809C14.8289 1.77497 13.4158 0.178093 10.5926 0.0480932ZM12.777 12.7806C11.8314 13.7262 10.5195 13.6418 7.48452 13.6418C4.35952 13.6418 3.10639 13.6881 2.19202 12.7712C1.13889 11.7231 1.32952 10.04 1.32952 7.48809C1.32952 4.03497 0.975142 1.54809 4.44077 1.37059C5.23702 1.34247 5.47139 1.33309 7.47577 1.33309L7.50389 1.35184C10.8345 1.35184 13.4476 1.00309 13.6045 4.46809C13.6401 5.25872 13.6483 5.49622 13.6483 7.49747C13.6476 10.5862 13.7064 11.8468 12.777 12.7806Z" fill="black"/>
<path d="M11.5039 4.39616C12.0006 4.39616 12.4032 3.9935 12.4032 3.49679C12.4032 3.00008 12.0006 2.59741 11.5039 2.59741C11.0072 2.59741 10.6045 3.00008 10.6045 3.49679C10.6045 3.9935 11.0072 4.39616 11.5039 4.39616Z" fill="black"/>
</g>
<defs>
<clipPath id="clip0">
<rect width="15" height="15" fill="white"/>
</clipPath>
</defs>
</svg>
