<svg width="13" height="13" viewBox="0 0 13 13" fill="none" xmlns="http://www.w3.org/2000/svg">
<path d="M6.5 0L7.05247 4.07947L9.32024 0.643703L8.04799 4.55889L11.5819 2.44732L8.73691 5.42276L12.837 5.05361L8.98278 6.5L12.837 7.94639L8.73691 7.57724L11.5819 10.5527L8.04799 8.44111L9.32024 12.3563L7.05247 8.92053L6.5 13L5.94753 8.92053L3.67976 12.3563L4.95201 8.44111L1.4181 10.5527L4.26309 7.57724L0.162969 7.94639L4.01722 6.5L0.162969 5.05361L4.26309 5.42276L1.4181 2.44732L4.95201 4.55889L3.67976 0.643703L5.94753 4.07947L6.5 0Z" fill="black"/>
</svg>
