<svg width="79" height="81" viewBox="0 0 79 81" fill="none" xmlns="http://www.w3.org/2000/svg">
<path d="M39.5 0L42.9423 25.4182L57.0723 4.01076L49.1452 28.4054L71.1642 15.2487L53.4376 33.788L78.9846 31.4879L54.9696 40.5L78.9846 49.5121L53.4376 47.212L71.1642 65.7513L49.1452 52.5946L57.0723 76.9892L42.9423 55.5818L39.5 81L36.0577 55.5818L21.9277 76.9892L29.8548 52.5946L7.83582 65.7513L25.5624 47.212L0.015419 49.5121L24.0304 40.5L0.015419 31.4879L25.5624 33.788L7.83582 15.2487L29.8548 28.4054L21.9277 4.01076L36.0577 25.4182L39.5 0Z" fill="#F93700"/>
</svg>
