<svg width="21" height="21" viewBox="0 0 21 21" fill="none" xmlns="http://www.w3.org/2000/svg">
<path d="M19.174 5.27345C18.5629 5.54842 17.9116 5.73068 17.2327 5.81917C17.9312 5.39145 18.4643 4.71931 18.7149 3.90916C18.0637 4.30738 17.3446 4.58867 16.5784 4.74564C15.96 4.07034 15.0787 3.6521 14.1173 3.6521C12.2519 3.6521 10.7502 5.20498 10.7502 7.10867C10.7502 7.38258 10.7728 7.64596 10.8283 7.8967C8.02715 7.75658 5.54858 6.37964 3.88353 4.2821C3.59284 4.79937 3.42233 5.39145 3.42233 6.02882C3.42233 7.22561 4.02323 8.2865 4.91892 8.90069C4.3776 8.89016 3.84655 8.72897 3.39665 8.47508C3.39665 8.48561 3.39665 8.49931 3.39665 8.513C3.39665 10.1923 4.56455 11.5872 6.09606 11.9085C5.82181 11.9854 5.5229 12.0223 5.21269 12.0223C4.99699 12.0223 4.77923 12.0096 4.57482 11.9633C5.01137 13.3318 6.25014 14.3379 7.72311 14.3705C6.57678 15.2902 5.12127 15.8444 3.54559 15.8444C3.26928 15.8444 3.00427 15.8317 2.73926 15.797C4.23174 16.7841 6.00054 17.3478 7.908 17.3478C14.108 17.3478 17.4977 12.0802 17.4977 7.51427C17.4977 7.36151 17.4926 7.21402 17.4854 7.06758C18.1541 6.58086 18.7159 5.97299 19.174 5.27345Z" fill="#03A9F4"/>
</svg>
